<svg xmlns="http://www.w3.org/2000/svg" viewBox="0 0 841.9 595.3">
  <g fill="#61DAFB">
    <path d="M666.3 296.5c0 33.8-4.7 66.5-13.3 97.5 19 10.7 35.6 24.1 49.6 39.8 13.3 14.9 25.3 32 35.8 50.7-22.3 19.6-46.9 36.3-73.5 49.7-26.8 13.5-55.7 24.6-85.9 32.8-30.7 8.3-62.4 13.3-94.8 14.7-3.8 31-10.2 60.6-19.1 88.3-17.5 54.5-41.5 104-71.5 147.3-21.2 30.6-45.4 58.5-72.4 83.2-9.2 8.2-19 16-29.2 23.3-2.7-21.8-5.2-43.7-7.4-65.7 32.3-20.7 61.2-47.4 87.2-78.2 24.5-28.6 44.8-60.2 60.6-94.4 18.4-39.1 30.3-80.5 35.5-123.5 15.8-0.9 31.5-2.7 47-5.4 12.7 39.3 26.9 77.6 43 114.6 16.4 37.4 35 73.5 55.6 108.1 20.9 35 44.2 67.8 70 97.5-2.3 22-4.8 44-7.5 65.8-10.2-7.4-20.2-15.1-29.6-23.2-26.9-24.6-50.8-52.4-71.8-83-30.1-43.2-54.1-92.7-71.6-147.2-8.8-27.7-15.3-57.3-19.1-88.3-32.4-1.4-64.1-6.4-94.8-14.7-30.2-8.3-59.1-19.4-85.9-32.8-26.6-13.4-51.2-30.1-73.5-49.7 10.5-18.7 22.5-35.8 35.8-50.7 14-15.7 30.6-29.1 49.6-39.8-8.6-31-13.3-63.7-13.3-97.5 0-33.8 4.7-66.5 13.3-97.5-19-10.7-35.6-24.1-49.6-39.8-13.3-14.9-25.3-32-35.8-50.7 22.3-19.6 46.9-36.3 73.5-49.7 26.8-13.5 55.7-24.6 85.9-32.8 30.7-8.3 62.4-13.3 94.8-14.7 3.8-31 10.2-60.6 19.1-88.3 17.5-54.5 41.5-104 71.5-147.3 21.2-30.6 45.4-58.5 72.4-83.2 9.2-8.2 19-16 29.2-23.3 2.7 21.8 5.2 43.7 7.4 65.7-32.3 20.7-61.2 47.4-87.2 78.2-24.5 28.6-44.8 60.2-60.6 94.4-18.4 39.1-30.3 80.5-35.5 123.5-15.8 0.9-31.5 2.7-47 5.4-12.7-39.3-26.9-77.6-43-114.6-16.4-37.4-35-73.5-55.6-108.1-20.9-35-44.2-67.8-70-97.5 2.3-22 4.8-44 7.5-65.8 10.2 7.4 20.2 15.1 29.6 23.2 26.9 24.6 50.8 52.4 71.8 83 30.1 43.2 54.1 92.7 71.6 147.2 8.8 27.7 15.3 57.3 19.1 88.3 32.4 1.4 64.1 6.4 94.8 14.7 30.2 8.3 59.1 19.4 85.9 32.8 26.6 13.4 51.2 30.1 73.5 49.7-10.5 18.7-22.5 35.8-35.8 50.7-14 15.7-30.6 29.1-49.6 39.8 8.6 31 13.3 63.7 13.3 97.5z"/>
  </g>
</svg>